<svg width="48" height="47" viewBox="0 0 48 47" fill="none" xmlns="http://www.w3.org/2000/svg">
<path d="M37.4001 46C37.4001 39.4 32.8001 34 26.6001 32.6V29.2C28.9001 28.1 30.5001 25.8 30.5001 23C30.5001 22.4 30.5001 20.2 30.5001 19.6C30.5001 15.8 27.4001 12.8 23.7001 12.8C19.9001 12.8 16.9001 15.9 16.9001 19.6C16.9001 20.2 16.9001 22.4 16.9001 23C16.9001 25.7 18.5001 28 20.7001 29.1V32.6C14.6001 34 10.1001 39.5 10.1001 46H37.4001Z" stroke="white" stroke-width="2" stroke-miterlimit="10"/>
<path d="M30.6 17.6C31.6 17 32.5999 16.5 33.7999 16.3V13.7C32.0999 12.9 30.9 11.1 30.9 9.1C30.9 8.7 30.9 7 30.9 6.5C30.9 3.7 33.1999 1.3 36.0999 1.3C38.8999 1.3 41.2999 3.6 41.2999 6.5C41.2999 6.9 41.2999 8.6 41.2999 9.1C41.2999 11.2 40.0999 12.9 38.2999 13.7V16.3C42.9999 17.3 46.4 21.4 46.4 26.4H29.7" stroke="white" stroke-width="2" stroke-miterlimit="10"/>
<path d="M17.2 17.6C16.2 17 15.1 16.5 14 16.3V13.7C15.7 12.9 17 11.1 17 9.1C17 8.7 17 7 17 6.5C17 3.7 14.7 1.3 11.8 1.3C9 1.3 6.6 3.6 6.6 6.5C6.6 6.9 6.6 8.6 6.6 9.1C6.6 11.1 7.8 12.8 9.5 13.7V16.3C4.9 17.3 1.5 21.4 1.5 26.4H17.2" stroke="white" stroke-width="2" stroke-miterlimit="10"/>
</svg>
