<svg width="50" height="50" viewBox="0 0 50 50" fill="none" xmlns="http://www.w3.org/2000/svg">
<path d="M24.9 43.9C35.3382 43.9 43.8 35.4382 43.8 25C43.8 14.5618 35.3382 6.09999 24.9 6.09999C14.4618 6.09999 6 14.5618 6 25C6 35.4382 14.4618 43.9 24.9 43.9Z" stroke="white" stroke-width="2" stroke-miterlimit="10"/>
<path d="M24.6001 10.7V28.6" stroke="white" stroke-width="2" stroke-miterlimit="10"/>
<path d="M24.6001 28.6L30.7001 22.5" stroke="white" stroke-width="2" stroke-miterlimit="10"/>
<path d="M24.9 48.6C37.934 48.6 48.5 38.0339 48.5 25C48.5 11.9661 37.934 1.39999 24.9 1.39999C11.8661 1.39999 1.30005 11.9661 1.30005 25C1.30005 38.0339 11.8661 48.6 24.9 48.6Z" stroke="white" stroke-width="2" stroke-miterlimit="10"/>
</svg>
